<svg xmlns="http://www.w3.org/2000/svg"  viewBox="0 0 48 48" width="48px" height="48px"><path fill="#ffa726" d="M30 10c0 3.3-2.7 6-6 6s-6-2.7-6-6 2.7-6 6-6S30 6.7 30 10zM39.6 29.3c-.6 0-1.1-.2-1.5-.7l0 0c-.1-.1-5.4-6-14.1-6s-14 5.9-14.1 6c-.7.8-2 .9-2.8.2-.8-.7-.9-2-.2-2.8.3-.3 6.6-7.4 17.1-7.4s16.8 7.1 17.1 7.4c.7.8.6 2.1-.2 2.8C40.5 29.1 40 29.3 39.6 29.3z"/><path fill="#ffa726" d="M28.6 45c-.6 0-1.2-.2-1.7-.7-1-1-1-2.5-.1-3.5.1-.1 2.2-2.4 2.2-5.1 0-3-1.6-5.9-1.7-5.9-.7-1.2-.3-2.7.9-3.4 1.2-.7 2.7-.3 3.4.9.1.2 2.3 4.1 2.3 8.4 0 4.6-3.2 8.2-3.6 8.5C29.9 44.7 29.2 45 28.6 45zM19.5 45c-.7 0-1.3-.3-1.8-.8-.4-.4-3.6-3.9-3.6-8.5 0-4.4 2.2-8.3 2.3-8.4.7-1.2 2.2-1.6 3.4-.9 1.2.7 1.6 2.2.9 3.4 0 0-1.7 2.9-1.7 5.9 0 2.6 2.2 5.1 2.2 5.1 1 1 .9 2.6-.1 3.5C20.7 44.8 20.1 45 19.5 45z"/><path fill="#bbdefb" d="M16.1,23v6c0,4.4,3.6,7.9,7.9,7.9s7.9-3.6,7.9-7.9v-6H16.1z"/><path fill="#ffa726" d="M16,20.6h16v5.8H16V20.6z"/></svg>