<svg xmlns="http://www.w3.org/2000/svg"  viewBox="0 0 48 48" width="48px" height="48px"><path fill="#9fa8da" d="M12,35v5H7.87c-1.31,0-2.41-0.94-2.59-2.14c-0.02-0.12-0.03-0.24-0.03-0.36c0-0.56,0.2-1.08,0.54-1.5	c0.07-0.09,0.14-0.18,0.23-0.26C6.5,35.28,7.15,35,7.87,35H12z"/><path fill="#4fc3f7" d="M16.973,14.232l-1.945-0.465l1.674-7c0.3-1.199,1.276-2.079,2.489-2.252l5.721-0.512l0.178,1.992	L19.42,6.501c-0.352,0.052-0.677,0.345-0.776,0.741L16.973,14.232z"/><path fill="#d32f2f" d="M19,12.8H7c0,0.823-3,3.847-3,5.25c0,0.365,0,1.811,0,3.75l15.75,1.5L22,21.8c0-1.93,0-3.374,0-3.75	C22,16.599,19,13.574,19,12.8z"/><path fill="#d32f2f" d="M13.17,29.17c-0.26,0.27-0.49,0.57-0.68,0.91C12.18,30.65,12,31.3,12,32v4H4c0,0,0-2.21,0-5.77v-0.18	l3-1.5L13.17,29.17z"/><path fill="#ffd740" d="M22,21.77V28h-6c-1.1,0-2.1,0.45-2.83,1.17c-0.26,0.27-0.49,0.57-0.68,0.91	c-0.79-0.23-2.39-0.62-3.99-0.62c-2.25,0-4.5,0.77-4.5,0.77v-8.46c0,0,2.25-0.77,4.5-0.77s4.5,0.77,4.5,0.77s2.25,0.77,4.5,0.77	S22,21.77,22,21.77z"/><path fill="#c5cae9" d="M20,12L20,12c0-0.552-0.348-1-0.778-1H6.778C6.348,11,6,11.448,6,12l0,0c0,0.552,0.348,1,0.778,1	h12.444C19.652,13,20,12.552,20,12z"/><path fill="#c5cae9" d="M12,36v2H6c-0.25,0-0.5-0.05-0.72-0.14C4.53,37.57,4,36.85,4,36H12z"/><path fill="#fbc02d" d="M22,28v2.23c0,0-2.25,0.77-4.5,0.77S13,30.23,13,30.23s-0.19-0.06-0.51-0.15	c0.19-0.34,0.42-0.64,0.68-0.91C13.9,28.45,14.9,28,16,28H22z"/><path fill="#b71c1c" d="M22,30.23c0,3.56,0,5.77,0,5.77H12v-4c0-0.7,0.18-1.35,0.49-1.92c0.32,0.09,0.51,0.15,0.51,0.15	S15.25,31,17.5,31S22,30.23,22,30.23z"/><path fill="#9fa8da" d="M22,36c0,0.55-0.22,1.05-0.59,1.41c-0.12,0.13-0.27,0.24-0.42,0.33C20.7,37.91,20.36,38,20,38h-8v-2	H22z"/><path fill="#7986cb" d="M20.99,37.74c-0.06,0.59-0.35,1.12-0.76,1.52C19.76,39.72,19.1,40,18.38,40H12v-2h8	C20.36,38,20.7,37.91,20.99,37.74z"/><path fill="#ffab40" d="M42,43H16c-1.105,0-2-0.895-2-2v-9c0-1.105,0.895-2,2-2h26c1.105,0,2,0.895,2,2v9	C44,42.105,43.105,43,42,43z"/><rect width="30" height="7" x="14" y="33" fill="#fff3e0"/><rect width="30" height="2" x="14" y="33" fill="#f44336"/><rect width="30" height="2" x="14" y="38" fill="#8bc34a"/></svg>