<svg xmlns="http://www.w3.org/2000/svg"  viewBox="0 0 48 48" width="48px" height="48px"><polygon fill="#ffcc80" points="10,12 38,12 48,40 0,40"/><polygon fill="#90caf9" points="14,15 34,15 40,36 8,36"/><polygon fill="#2196f3" points="34,17 14,17 13,14 35,14"/><polygon fill="#2196f3" points="9.5,36 14,17 13,14 7,36"/><polygon fill="#2196f3" points="38.5,36 34,17 35,14 41,36"/><rect width="2" height="3" x="24" y="17" fill="#64b5f6"/><rect width="2" height="3" x="30" y="17" fill="#64b5f6"/><path fill="#f4511e" d="M32,17h-2V6c0-1.654,1.346-3,3-3h1v2h-1c-0.552,0-1,0.449-1,1V17z"/><path fill="#f4511e" d="M26,17h-2V6c0-1.654,1.346-3,3-3h1v2h-1c-0.552,0-1,0.449-1,1V17z"/><rect width="6" height="2" x="25" y="8" fill="#f4511e"/><rect width="6" height="2" x="25" y="12" fill="#f4511e"/></svg>