<svg xmlns="http://www.w3.org/2000/svg"  viewBox="0 0 48 48" width="48px" height="48px"><path fill="#cfd8dc" d="M27,32c0,0,3-1,4-2l1,4C32,34,28,36,27,32z"/><path fill="#ffb74d" d="M24.798,29.521c-0.388,0-0.778-0.128-1.104-0.393l-5.562-4.523 c-0.095-0.076-0.181-0.163-0.257-0.258L13.639,19.1c-0.607-0.752-0.49-1.854,0.262-2.461c0.754-0.607,1.854-0.488,2.461,0.262 l4.122,5.104l5.42,4.408c0.75,0.609,0.863,1.712,0.253,2.462C25.811,29.3,25.307,29.521,24.798,29.521z"/><path fill="#2196f3" d="M3,22l3,2v7h10v-9l1.324,1.672l2.48-2.512l-3.067-4.73C15.283,14.934,13.252,14,11,14 C6.582,14,3,17.582,3,22z"/><polygon fill="#455a64" points="6,29 6,32 7,47 11,47 15,47 16,32 16,29"/><path fill="#90caf9" d="M12.98,14.258C12.914,14.793,12.586,16,10.96,16c-1.623,0-1.903-1.203-1.949-1.74 c-0.671,0.172-1.309,0.424-1.9,0.752c0.124,0.561,0.384,1.229,0.936,1.816C8.549,17.363,9.463,18,10.96,18 c1.478,0,2.397-0.621,2.908-1.144c0.587-0.598,0.867-1.289,1.005-1.854C14.284,14.676,13.648,14.428,12.98,14.258z"/><path fill="#ff9800" d="M13.001,11h-4v3c0,0-0.124,2,1.959,2s2.041-2,2.041-2L13.001,11z"/><polygon fill="#ffb74d" points="3,22 3,30 6,32 6,31 6,29 6,24"/><path fill="#ffb74d" d="M11,13c2.758,0,5-2.242,5-5s-2.242-5-5-5S6,5.242,6,8S8.242,13,11,13"/><path fill="#424242" d="M10.781,1C8.344,1.219,6,2.93,6,6.574V8l1,1V6l6.31-2.201L15,6v3l1-1V6.797 C16,4.383,15.865,2.592,13,2l-0.485-1H10.781z"/><polygon fill="#263238" points="10,47 11,32 12,47"/><circle cx="32" cy="32" r="3" fill="#cc6c25"/><path fill="#b0bec5" d="M37,40c0,0,1,2,4,4v2l0,0c-0.552,0-1,0.448-1,1l0,0h2c0.552,0,1-0.448,1-1v-6H37z"/><path fill="#cfd8dc" d="M40,41c0,1,2.008,2.339,3,3v2l0,0c-0.552,0-1,0.448-1,1l0,0h2c0.552,0,1-0.448,1-1v-4L40,41z"/><path fill="#b0bec5" d="M31,39v7l0,0c-0.552,0-1,0.448-1,1l0,0h2c0.552,0,1-0.448,1-1v-6L31,39z"/><path fill="#cfd8dc" d="M33,39v7l0,0c-0.552,0-1,0.448-1,1l0,0h2c0.552,0,1-0.448,1-1v-6L33,39z"/><path fill="#cc6c25" d="M31,34v5c0,1.657,1.343,3,3,3h0.929c1.326,0,1.598-0.527,2.536-1.464l0,0 C37.807,40.193,38.272,40,38.757,40C40,40,39.898,40.615,40,41c0.517,1.955,4.134,1.216,5,1l0,0l-1.445-2.168 C43.193,39.29,43,38.652,43,38l0,0c0-1.657-1.343-3-3-3h-3l-0.342-0.171C35.642,34.321,35,33.282,35,32.146V32L31,34z"/><path fill="#894415" d="M31.935,31l-1.167,1.809C30.267,33.587,30,34.492,30,35.417v0.156c0,0.758,0.621,1.444,1.378,1.406 c0.758-0.038,1.369-0.451,1.81-0.891C33.729,35.55,34,34.798,34,34.036V32L31.935,31z"/><circle cx="30.5" cy="31.5" r=".5" fill="#3e2723"/><path fill="#3e2723" d="M27.347,32.93C27.727,32.788,28,32.429,28,32c0-0.121-0.029-0.234-0.069-0.342 C27.389,31.87,27,32,27,32C27.091,32.362,27.213,32.66,27.347,32.93z"/><path fill="#6d350f" d="M43.768,28.359c-0.354-0.425-0.984-0.481-1.408-0.128s-0.481,0.984-0.128,1.409	c0.821,0.984,1.715,2.375,1.311,3.405c-0.495,1.261-2.793,1.839-3.622,1.954H37l-0.342-0.171C35.642,34.321,35,33.282,35,32.146	v2.891c0,2.116,0.96,4.094,2.57,5.412C37.901,40.165,38.318,40,38.757,40C40,40,39.898,40.615,40,41	c0.052,0.195,0.141,0.357,0.249,0.502l2.421-4.842c-0.052-0.103-0.113-0.201-0.176-0.297c1.15-0.468,2.386-1.259,2.907-2.58	C46.017,32.224,45.467,30.398,43.768,28.359z"/></svg>