<svg xmlns="http://www.w3.org/2000/svg"  viewBox="0 0 48 48" width="48px" height="48px"><path fill="#607d8b" d="M23,28.5v-8.988h3V28.5c0,0.828-0.672,1.5-1.5,1.5h0C23.672,30,23,29.328,23,28.5z"/><circle cx="16" cy="11" r="4" fill="#ffb74d"/><path fill="#2196f3" d="M16,29l1.865-8.081c0.483-2.092-0.724-4.298-2.81-4.803c-2.192-0.531-4.273,0.833-4.752,2.906	l-2.179,9.873c-0.134,0.64-0.11,1.303,0.072,1.932L10.312,38H6c-1.215,0-2.177,1.083-1.973,2.336C4.187,41.319,5.111,42,6.107,42	L12,42c1.856,0,3.267-1.669,2.958-3.499L14,33h4l0,6.893c0,0.996,0.681,1.92,1.664,2.08C20.917,42.176,22,41.215,22,40v-8	c0-1.657-1.343-3-3-3H16z"/><path fill="#2196f3" d="M26.489,26.016h-6.005c-0.341,0-0.671-0.116-0.937-0.329l-4.484-4.516 c-0.647-0.518-0.752-1.461-0.234-2.108c0.518-0.646,1.713-1.952,2.359-1.435l3.823,5.389h5.479c0.829,0,1.5,0.671,1.5,1.5 S27.318,26.016,26.489,26.016z"/><path fill="#607d8b" d="M26,13.862v2.967c0,0.683-1.466,0.671-1.5,0.671c0,0-1.5,0.012-1.5-0.671v-2.967	c-1.179,0.563-2,1.756-2,3.15c0,1.933,1.567,3.5,3.5,3.5c1.933,0,3.5-1.567,3.5-3.5C28,15.618,27.179,14.425,26,13.862z"/><path fill="none" stroke="#546e7a" stroke-miterlimit="10" stroke-width="2" d="M36,14v-2c0-0.552,0.448-1,1-1h7"/><path fill="#bbdefb" d="M43.986,18H31c-0.552,0-1-0.448-1-1v0c0-0.552,0.448-1,1-1h12.986V18z"/><path fill="#bbdefb" d="M44,24H34c-1.105,0-2-0.895-2-2v-2h12V24z"/><polyline fill="#3f51b5" points="17.31,23.397 15.063,21.171 16.674,26.054"/><polygon fill="#3f51b5" points="14,33 11.946,33 14.489,36"/><polygon fill="#90caf9" points="32,18 32,20 44,20 43.986,18"/><path fill="#546e7a" d="M40,29v-5h-2v5v0c0,1.105,0.895,2,2,2h0h4v-2H40z"/><rect width="2" height="4" x="40" y="8" fill="#546e7a"/><rect width="6" height="2" x="38" y="6" fill="#546e7a"/></svg>